<?xml version="1.0" standalone="no"?><!DOCTYPE svg PUBLIC "-//W3C//DTD SVG 1.1//EN" "http://www.w3.org/Graphics/SVG/1.1/DTD/svg11.dtd"><svg t="1609734412059" class="icon" viewBox="0 0 1024 1024" version="1.1" xmlns="http://www.w3.org/2000/svg" p-id="9388" xmlns:xlink="http://www.w3.org/1999/xlink" width="128" height="128"><defs><style type="text/css"></style></defs><path d="M622.244571 8.521143H401.755429C184.530286 8.521143 8.420571 184.585143 8.420571 401.782857v220.452572c0 217.188571 176.109714 393.252571 393.334858 393.252571h220.48c217.234286 0 393.334857-176.064 393.334857-393.252571V401.782857c0-217.197714-176.100571-393.261714-393.325715-393.261714zM262.793143 565.065143a53.074286 53.074286 0 1 1-0.027429-106.148572 53.074286 53.074286 0 0 1 0.027429 106.148572z m249.216 0a53.074286 53.074286 0 1 1-0.027429-106.148572 53.074286 53.074286 0 0 1 0.027429 106.148572z m249.216 0a53.074286 53.074286 0 1 1-0.027429-106.148572 53.074286 53.074286 0 0 1 0.027429 106.148572z" p-id="9389" fill="#cdcdcd"></path></svg>