<?xml version="1.0" standalone="no"?><!DOCTYPE svg PUBLIC "-//W3C//DTD SVG 1.1//EN" "http://www.w3.org/Graphics/SVG/1.1/DTD/svg11.dtd"><svg t="1609734264248" class="icon" viewBox="0 0 1024 1024" version="1.1" xmlns="http://www.w3.org/2000/svg" p-id="4670" xmlns:xlink="http://www.w3.org/1999/xlink" width="128" height="128"><defs><style type="text/css"></style></defs><path d="M946.92374756 994.71147615L93.01151289 994.71147615c-22.09291378 0-44.18704117-11.04645689-58.54792059-27.61614223l-1.10440297-1.10440297c-14.36087941-19.88532148-18.77970489-43.08385185-13.25647644-64.07114903 45.29265777-229.77285689 235.29608533-404.31100208 461.75330608-423.09070698 5.52322845-1.10440297 9.94205392-2.20880592 14.36087939-2.20880591l41.97823527 0-5.52444207 55.23349808L510.57777778 531.85376711c-8.83765097 0-13.25647645 0-19.88410784 2.20880592l-3.31320892 0C283.01372681 548.42466607 111.79121778 705.28872295 72.02178844 914.0718554c-1.10440297 5.52322845-1.10440297 13.25647645 4.41761186 18.77970489l1.10440296 2.20880593c3.31563615 4.41882548 8.83886459 6.62884503 15.466496 6.62884503l855.01663763 0c6.62763141 0 12.15085985-2.20880592 15.46528237-6.62884503 5.52322845-6.62763141 6.62763141-13.25526282 5.52322844-20.98851082-25.4073363-136.97994905-108.25819022-252.96896-225.35281776-319.25012858l-1.10440297-1.10440298c-8.83765097-5.52444208-19.88410785-11.04767052-29.82616179-16.57089895-3.31442252-2.20880591-6.62884503-3.31320889-9.94205392-5.52201482l-15.46528237-6.62884504 22.09291378-49.71026963 15.46528236 6.62763142c11.04645689 4.41882548 22.09412741 11.04645689 32.03618133 15.46528235l13.25526282 6.62884505c132.56112355 75.11760592 224.24841482 205.4674963 254.0745766 357.91394133 5.52322845 22.09291378 0 45.29144415-16.56968534 65.175552-15.46528237 17.6740883-38.66381275 27.61614222-60.75672651 27.61614223z" fill="#cdcdcd" p-id="4671"></path><path d="M526.04306015 515.28408178c-139.18875497 0-254.07457659-114.88582163-254.07457659-254.07457661S386.85430519 7.13492859 526.04306015 7.13492859s254.07457659 114.88582163 254.07457658 254.07336296-115.99022459 254.07579022-254.07336295 254.07579023z m0-468.38093749c-119.30464711 0-214.30636089 96.10611675-214.30636089 214.30636087s96.10733037 214.30636089 214.30636089 214.30636091 214.30636089-96.10733037 214.30636088-214.3063609-96.10733037-214.30636089-214.30636088-214.30636088z" fill="#cdcdcd" p-id="4672"></path><path d="M526.04306015 520.80731022c-143.60758046 0-259.59780503-115.99022459-259.59780504-259.59780506S382.4354797 1.61048651 526.04306016 1.61048651s259.59780503 115.99143822 259.59780505 259.59901866-117.09462755 259.59780503-259.59780506 259.59780505z m0-508.14915317c-136.97873541 0-248.55134815 111.57139911-248.55134815 248.55134812s111.57261275 248.55134815 248.55134816 248.55134816 248.55134815-111.57261275 248.55134814-248.55134816-111.57139911-248.55134815-248.55134815-248.55134814z m0 468.38093747c-121.51345303 0-219.82958933-98.3161363-219.82958934-219.82958935s98.3161363-219.83080297 219.82958934-219.83080295c121.51466668 0 219.82958933 98.3161363 219.82958933 219.83080295s-99.42053925 219.82958933-219.82958933 219.82958935z m0-428.61272178c-114.88582163 0-208.78313245 93.89731082-208.78313245 208.78313243 0 114.88582163 93.89731082 208.78313245 208.78313245 208.78313245s208.78313245-93.89852445 208.78313244-208.78313246c0-114.88582163-93.89731082-208.78313245-208.78313244-208.78313242zM186.9088237 811.33567999c-2.20880591 0-5.52322845-1.10440297-7.733248-2.20880592-7.73203437-4.41882548-11.04645689-14.36087941-6.6276314-22.0941274 97.21173333-188.89902459 308.20367171-224.24841482 317.04132267-225.35281778 8.83765097-1.10440297 17.6740883 4.41882548 18.77970488 13.25647644 1.10440297 8.83765097-4.41882548 17.6740883-13.25647644 18.77970489-2.20880591 0-203.259904 34.24377363-292.73838933 207.67751585-3.31320889 6.62884503-8.83765097 9.94205393-15.46528238 9.94205392z m-37.55940978 96.10733038c-8.83643733 0-16.56968533-7.733248-16.56968533-16.57089897 0-32.03496771 20.98851082-66.27995497 24.30293334-69.59437749 4.41761185-7.73203437 15.46528237-9.94205392 23.19853037-5.5220148 7.73203437 4.41761185 9.94205392 15.46406875 5.52201481 23.19731673-5.52201482 7.73203437-18.77849125 33.1405843-18.77849126 51.91907556-1.10440297 8.83765097-7.733248 16.57089897-17.67530193 16.57089897z" fill="#cdcdcd" p-id="4673"></path></svg>