<?xml version="1.0" standalone="no"?><!DOCTYPE svg PUBLIC "-//W3C//DTD SVG 1.1//EN" "http://www.w3.org/Graphics/SVG/1.1/DTD/svg11.dtd"><svg t="1609406443629" class="icon" viewBox="0 0 1024 1024" version="1.1" xmlns="http://www.w3.org/2000/svg" p-id="3100" xmlns:xlink="http://www.w3.org/1999/xlink" width="128" height="128"><defs><style type="text/css"></style></defs><path d="M512 107.52c127.24736 0 230.4 103.15264 230.4 230.4 0 59.1104-22.26176 113.01888-58.8544 153.8048C832.7936 557.65504 936.96 706.98496 936.96 880.64v35.84H87.04v-35.84c0-173.66016 104.1664-322.99008 253.42464-388.9152C303.85664 450.93888 281.6 397.0304 281.6 337.92c0-127.24736 103.15264-230.4 230.4-230.4z m0 460.8c-144.896 0-266.73664 98.6624-302.01856 232.4736l-0.78336 3.0464H814.7968l-0.77824-3.0464c-34.86208-132.21376-154.24-230.1184-296.8576-232.43264L512 568.32z m0-348.16c-65.03936 0-117.76 52.72064-117.76 117.76s52.72064 117.76 117.76 117.76 117.76-52.72064 117.76-117.76-52.72064-117.76-117.76-117.76z" fill="#bfbfbf" p-id="3101"></path><path d="M512 455.68c61.04064 0 119.07584 12.87168 171.53536 36.0448C641.36192 538.74176 580.13696 568.32 512 568.32s-129.36192-29.57824-171.5456-76.5952C392.92416 468.5568 450.95936 455.68 512 455.68z" fill="#bfbfbf" p-id="3102"></path></svg>